<svg width="102" height="162" viewBox="0 0 102 162" fill="none" xmlns="http://www.w3.org/2000/svg">
<path d="M50.9686 0H50.7374C22.7603 0 0 22.7527 0 50.7191C0 69.0511 8.34867 93.2448 24.814 122.629C37.0214 144.414 49.3998 161.099 49.5238 161.265C49.8684 161.728 50.4115 162 50.9869 162C51.0032 162 51.02 162 51.0363 162C51.63 161.983 52.178 161.679 52.5074 161.185C52.6295 161 64.9197 142.44 77.0442 119.739C93.4091 89.1001 101.707 65.8777 101.707 50.7191C101.706 22.7523 78.945 0 50.9686 0ZM74.3884 51.9586C74.3884 64.9365 63.8305 75.494 50.8526 75.494C37.8752 75.494 27.3172 64.9361 27.3172 51.9586C27.3172 38.9811 37.8752 28.4232 50.8526 28.4232C63.8305 28.4232 74.3884 38.9811 74.3884 51.9586Z" fill="#FF3EC9"/>
<circle cx="53.3533" cy="51.5" r="29.5" fill="#FF3EC9"/>
<circle cx="50.5" cy="49.5" r="31.5" fill="#E5E5E5"/>
</svg>
