<svg width="239" height="191" viewBox="0 0 239 191" fill="none" xmlns="http://www.w3.org/2000/svg">
<path d="M14.7522 171.411C16.7573 171.411 18.2691 171.014 19.2876 170.218C20.3379 169.39 20.8631 168.308 20.8631 166.971C20.8631 165.476 20.3698 164.409 19.3831 163.773C18.3964 163.104 16.63 162.659 14.0838 162.436C9.1823 162.054 5.68125 161.115 3.58062 159.619C1.51182 158.123 0.477416 155.816 0.477416 152.697V152.172C0.477416 148.511 1.78235 145.726 4.39223 143.817C6.97028 141.939 10.4236 141 14.7522 141C24.3323 141 29.1224 145.026 29.1224 153.079V153.413H20.6244C20.6244 149.625 18.667 147.732 14.7522 147.732C12.938 147.732 11.5216 148.114 10.5032 148.877C9.51649 149.641 9.02316 150.66 9.02316 151.933C9.02316 153.333 9.48467 154.352 10.4077 154.988C11.2988 155.625 13.0016 156.039 15.516 156.23C20.322 156.643 23.8549 157.55 26.1147 158.951C28.4063 160.383 29.5521 162.802 29.5521 166.208V166.637C29.5521 170.202 28.2949 173.019 25.7805 175.088C23.2342 177.124 19.5581 178.143 14.7522 178.143C9.91434 178.143 6.23824 177.061 3.72385 174.897C1.24128 172.7 0 169.884 0 166.446V166.208H8.59349C8.59349 169.677 10.6464 171.411 14.7522 171.411ZM43.4449 158.521V160.622C43.4449 167.242 45.8319 170.552 50.6061 170.552C52.6749 170.552 54.2345 169.979 55.2848 168.833C56.3351 167.688 56.8603 166.208 56.8603 164.393H65.0718V165.778C65.0718 169.406 63.8146 172.366 61.3002 174.658C58.7858 176.981 55.1416 178.143 50.3674 178.143C45.1795 178.143 41.2806 176.552 38.6707 173.369C36.0608 170.186 34.7559 165.937 34.7559 160.622V158.521C34.7559 153.174 36.0608 148.909 38.6707 145.726C41.2806 142.575 45.1795 141 50.3674 141C55.2052 141 58.8654 142.194 61.348 144.581C63.8305 147 65.0718 150.103 65.0718 153.89V155.37H56.8603C56.8603 153.238 56.3351 151.567 55.2848 150.357C54.2345 149.148 52.6749 148.543 50.6061 148.543C45.8319 148.543 43.4449 151.869 43.4449 158.521ZM88.7039 141C88.8312 141 89.0222 141.016 89.2768 141.048C89.4996 141.048 89.6428 141.048 89.7065 141.048V149.498H88.2265C84.3753 149.498 81.6382 150.739 80.0149 153.222V177.284H71.326V151.885L70.7053 141.859H78.3917L79.1078 146.156C81.4949 142.719 84.6936 141 88.7039 141ZM124.892 177.284H117.206L116.537 173.226C113.705 176.504 109.853 178.143 104.984 178.143C101.419 178.143 98.7456 177.172 96.9632 175.231C95.1809 173.257 94.2897 170.759 94.2897 167.735V167.067C94.2897 163.502 95.3718 160.908 97.5361 159.285C99.7004 157.662 102.74 156.548 106.655 155.943L115.678 154.559V154.415C115.678 152.092 115.248 150.405 114.389 149.355C113.53 148.273 112.002 147.732 109.806 147.732C105.891 147.732 103.933 149.673 103.933 153.556H95.6264V152.935C95.6264 149.53 96.7404 146.681 98.9684 144.39C101.164 142.13 104.841 141 109.997 141C115.248 141 118.956 142.13 121.12 144.39C123.285 146.681 124.367 150.023 124.367 154.415V167.258L124.892 177.284ZM107.992 170.982C111.302 170.982 113.864 169.756 115.678 167.306V159.858L108.278 161.051C104.745 161.624 102.979 163.311 102.979 166.112V166.637C102.979 167.847 103.408 168.881 104.268 169.74C105.095 170.568 106.336 170.982 107.992 170.982ZM149.909 178.143C145.867 178.143 142.732 176.758 140.504 173.989V190.651H131.815V151.885L131.242 141.859H138.928L139.692 146.252C141.952 142.751 145.357 141 149.909 141C158.725 141 163.133 146.84 163.133 158.521V160.622C163.133 166.033 162.083 170.313 159.982 173.464C157.85 176.583 154.492 178.143 149.909 178.143ZM140.504 152.601V166.542C142.19 169.215 144.498 170.552 147.426 170.552C152.105 170.552 154.444 167.242 154.444 160.622V158.521C154.444 151.869 152.105 148.543 147.426 148.543C144.53 148.543 142.222 149.896 140.504 152.601ZM187.529 178.143C183.487 178.143 180.352 176.758 178.124 173.989V190.651H169.435V151.885L168.91 141.859H176.596L177.312 146.252C179.572 142.751 182.978 141 187.529 141C196.345 141 200.753 146.84 200.753 158.521V160.622C200.753 166.033 199.703 170.313 197.603 173.464C195.47 176.583 192.112 178.143 187.529 178.143ZM178.124 152.601V166.542C179.811 169.215 182.118 170.552 185.046 170.552C189.725 170.552 192.065 167.242 192.065 160.622V158.521C192.065 151.869 189.725 148.543 185.046 148.543C182.15 148.543 179.843 149.896 178.124 152.601ZM213.405 141.859L221.139 166.446L228.969 141.859H238.326L225.818 175.565L221.139 190.651H210.875L216.46 175.565L204 141.859H213.405Z" fill="white"/>
<path d="M127.62 64.9078C126.206 64.6697 120.341 62.4125 119.553 60.153C119.089 58.8434 118.917 56.5741 118.88 54.3437C120.246 53.6415 121.215 52.2566 121.215 50.6142C121.215 48.3644 119.442 46.581 117.228 46.4571V46.4474C117.153 46.4474 117.085 46.4085 117.01 46.4085C116.866 46.4085 116.745 46.4741 116.601 46.4838C116.553 46.4935 116.526 46.445 116.478 46.445C116.393 46.4547 116.344 46.5397 116.259 46.5592C114.303 46.9187 112.794 48.5515 112.794 50.6118C112.794 52.1206 113.63 53.3937 114.835 54.1323C114.796 56.4381 114.626 58.7924 114.152 60.1505C113.365 62.4101 107.5 64.6672 106.285 64.8956C105.769 64.8956 105.274 65.1007 104.909 65.4656C104.544 65.8306 104.339 66.3256 104.339 66.8418C104.339 67.3579 104.544 67.8529 104.909 68.2179C105.274 68.5829 105.769 68.7879 106.285 68.7879C107.121 68.7879 114.002 66.832 116.849 63.1511C119.707 66.8345 126.587 68.7879 127.423 68.7879C128.495 68.7879 129.464 67.9157 129.464 66.8418C129.464 65.7679 128.694 64.9078 127.62 64.9078ZM103.591 42.5187C102.474 42.5163 101.382 42.1829 100.454 41.5608C99.5264 40.9386 98.8036 40.0555 98.3772 39.0229C97.9508 37.9903 97.8398 36.8545 98.0584 35.7589C98.2769 34.6633 98.8151 33.657 99.6051 32.8671C100.395 32.0771 101.401 31.5389 102.497 31.3204C103.593 31.1018 104.728 31.2128 105.761 31.6392C106.793 32.0656 107.677 32.7884 108.299 33.7163C108.921 34.6442 109.254 35.7356 109.257 36.8527C109.254 38.3547 108.656 39.7943 107.594 40.8563C106.532 41.9183 105.093 42.5161 103.591 42.5187ZM103.591 35.0961C103.134 35.1131 102.701 35.3065 102.384 35.6356C102.067 35.9648 101.89 36.4041 101.89 36.8612C101.89 37.3184 102.067 37.7577 102.384 38.0869C102.701 38.416 103.134 38.6094 103.591 38.6264C104.567 38.6264 105.364 37.8295 105.364 36.8527C105.362 36.3847 105.174 35.9368 104.841 35.6074C104.508 35.2781 104.059 35.0942 103.591 35.0961ZM130.412 42.5187C128.91 42.5161 127.47 41.9183 126.408 40.8563C125.346 39.7943 124.748 38.3547 124.746 36.8527C124.746 33.7404 127.289 31.2063 130.412 31.2063C131.912 31.2063 133.35 31.8022 134.411 32.8629C135.472 33.9237 136.068 35.3623 136.068 36.8625C136.068 38.3626 135.472 39.8013 134.411 40.862C133.35 41.9227 131.912 42.5187 130.412 42.5187ZM130.412 35.0961C129.943 35.0942 129.494 35.2781 129.161 35.6074C128.829 35.9368 128.64 36.3847 128.638 36.8527C128.655 37.3108 128.849 37.7445 129.179 38.0626C129.509 38.3806 129.949 38.5584 130.408 38.5584C130.866 38.5584 131.307 38.3806 131.637 38.0626C131.967 37.7445 132.161 37.3108 132.178 36.8527C132.176 36.3858 131.989 35.9386 131.658 35.6093C131.327 35.28 130.878 35.0955 130.412 35.0961Z" fill="white"/>
<path d="M164.881 42.7932C164.881 36.9184 163.401 31.3958 160.981 26.3178L161.2 26.2328C159.074 21.0795 159.842 19.7894 161.115 17.6538C161.742 16.5993 162.529 15.2897 163.012 13.6011C163.248 12.776 163.205 11.896 162.889 11.098C162.573 10.3 162.002 9.62885 161.266 9.18889L147.285 0.835795C146.42 0.318271 145.388 0.157695 144.407 0.388065C143.425 0.618436 142.572 1.22167 142.028 2.07005L141.165 3.36019C140.715 4.01296 140.303 4.69114 139.931 5.39137C132.786 1.84768 124.919 0.0025797 116.944 0C108.659 0 100.913 1.9923 94.1103 5.31605C93.7402 4.64515 93.338 3.99244 92.9052 3.36019L92.0427 2.07005C91.5 1.21972 90.6467 0.614874 89.6647 0.384335C88.6826 0.153795 87.6493 0.315785 86.785 0.835795L72.8048 9.18889C72.0679 9.62885 71.4971 10.3 71.1812 11.098C70.8653 11.896 70.8219 12.776 71.0579 13.6011C71.5414 15.2897 72.3286 16.5993 72.9555 17.6538C74.2262 19.7894 74.9963 21.0795 72.8704 26.2328L73.004 26.2814C70.5258 31.3788 69 36.9013 69 42.7956C69 57.7816 75.7009 69.5119 87.0887 76.7061C82.2197 86.5194 78.082 98.5923 74.8263 112.828L82.3995 114.555C85.5118 100.937 89.4333 89.4617 94.0156 80.2169C100.641 82.9308 108.261 84.5441 116.937 84.5441C125.506 84.5441 133.099 82.892 139.724 80.1222C144.336 89.1191 148.313 100.385 151.513 113.814L159.067 112.011C155.726 97.9849 151.53 86.1209 146.634 76.5725C158.039 69.3006 164.881 57.5411 164.881 42.7932ZM147.553 10.0587L153.731 13.742C152.412 15.4889 150.038 17.6708 147.477 19.7117C147.38 16.3612 147.361 12.7167 147.553 10.0587ZM86.593 19.7214C84.0297 17.6708 81.6584 15.4889 80.3391 13.742L86.5177 10.0587C86.7072 12.7167 86.6878 16.3612 86.593 19.7214ZM76.7797 42.7932C76.7797 36.6535 78.7064 30.939 81.9038 25.9291C83.8735 27.486 85.9064 28.9612 87.9973 30.351C88.5632 30.7275 89.2185 30.9477 89.8969 30.9895C90.5753 31.0313 91.2526 30.8932 91.8605 30.5891C92.4695 30.288 92.9889 29.8325 93.367 29.2681C93.7451 28.7037 93.9687 28.0501 94.0156 27.3723C94.0812 26.3567 94.4796 19.9595 94.4335 14.0846C101.22 9.96514 109.007 7.7853 116.946 7.78213C125.421 7.78213 133.167 10.2312 139.639 14.1599C139.591 20.0056 139.992 26.364 140.057 27.3723C140.104 28.05 140.327 28.7037 140.705 29.2682C141.083 29.8327 141.602 30.2883 142.211 30.5896C142.82 30.891 143.497 31.0275 144.175 30.9857C144.853 30.9438 145.508 30.725 146.075 30.351C148.1 29.0076 150.07 27.5827 151.979 26.0797C155.15 31.0532 157.104 36.6997 157.104 42.7932C157.104 63.4354 141.34 76.779 116.939 76.779C92.1642 76.779 76.7797 63.7586 76.7797 42.7932Z" fill="white"/>
<path d="M135.898 51.659C135.898 52.2858 135.404 52.779 134.778 52.779C134.151 52.779 133.658 52.2858 133.658 51.659C133.658 51.0418 134.151 50.5389 134.778 50.5389C135.404 50.5389 135.898 51.0418 135.898 51.659ZM142.008 54.2878C142.008 54.4352 141.979 54.5811 141.922 54.7172C141.865 54.8533 141.782 54.9768 141.678 55.0808C141.573 55.1848 141.449 55.2673 141.313 55.3234C141.177 55.3795 141.031 55.4082 140.883 55.4079C140.736 55.4076 140.59 55.3782 140.454 55.3215C140.318 55.2648 140.194 55.1819 140.09 55.0774C139.986 54.9729 139.904 54.849 139.848 54.7127C139.792 54.5764 139.763 54.4304 139.763 54.283C139.764 53.9853 139.883 53.7 140.094 53.49C140.305 53.2799 140.59 53.1623 140.888 53.1629C141.186 53.1635 141.471 53.2824 141.681 53.4934C141.891 53.7044 142.009 53.9901 142.008 54.2878ZM135.898 57.4658C135.912 57.6213 135.893 57.7782 135.843 57.9262C135.794 58.0742 135.713 58.2102 135.608 58.3254C135.502 58.4407 135.374 58.5326 135.231 58.5954C135.088 58.6582 134.934 58.6905 134.777 58.6902C134.621 58.6898 134.467 58.6569 134.324 58.5934C134.181 58.53 134.053 58.4375 133.948 58.3218C133.843 58.2061 133.764 58.0698 133.715 57.9215C133.665 57.7733 133.648 57.6164 133.662 57.4609C133.689 57.1826 133.819 56.9241 134.026 56.7362C134.233 56.5484 134.503 56.4446 134.782 56.4452C135.062 56.4458 135.331 56.5508 135.538 56.7395C135.744 56.9283 135.872 57.1873 135.898 57.4658ZM97.0793 51.659C97.08 51.9567 97.1989 52.2419 97.4098 52.452C97.6208 52.662 97.9065 52.7797 98.2042 52.779C98.502 52.7784 98.7872 52.6595 98.9973 52.4485C99.2073 52.2376 99.325 51.9518 99.3243 51.6541C99.3237 51.3564 99.2048 51.0711 98.9938 50.8611C98.7829 50.651 98.4971 50.5334 98.1994 50.534C97.9017 50.5347 97.6164 50.6536 97.4064 50.8645C97.1963 51.0755 97.0787 51.3613 97.0793 51.659ZM90.9858 54.2878C90.9716 54.4434 90.9901 54.6002 91.0399 54.7482C91.0898 54.8962 91.1701 55.0322 91.2755 55.1474C91.381 55.2627 91.5093 55.3547 91.6523 55.4175C91.7953 55.4803 91.9499 55.5125 92.1061 55.5122C92.2623 55.5119 92.4167 55.4789 92.5594 55.4155C92.7022 55.3521 92.8301 55.2595 92.9351 55.1438C93.04 55.0281 93.1197 54.8918 93.1689 54.7436C93.2181 54.5953 93.2359 54.4385 93.2211 54.283C93.1945 54.0046 93.0649 53.7462 92.8578 53.5583C92.6507 53.3704 92.3809 53.2666 92.1012 53.2672C91.8216 53.2678 91.5522 53.3728 91.3459 53.5616C91.1396 53.7503 91.0112 54.0093 90.9858 54.2878ZM97.0793 57.4658C97.08 57.7635 97.1989 58.0488 97.4098 58.2588C97.6208 58.4689 97.9065 58.5865 98.2042 58.5859C98.502 58.5852 98.7872 58.4663 98.9973 58.2554C99.2073 58.0444 99.325 57.7586 99.3243 57.4609C99.3237 57.1632 99.2048 56.878 98.9938 56.6679C98.7829 56.4579 98.4971 56.3402 98.1994 56.3409C97.9017 56.3415 97.6164 56.4604 97.4064 56.6714C97.1963 56.8823 97.0787 57.1681 97.0793 57.4658Z" fill="white"/>
</svg>
