<svg width="102" height="162" viewBox="0 0 102 162" fill="none" xmlns="http://www.w3.org/2000/svg">
<path d="M51.1154 0H50.8841C22.907 0 0.146729 22.7527 0.146729 50.7191C0.146729 69.0511 8.4954 93.2448 24.9607 122.629C37.1681 144.414 49.5466 161.099 49.6705 161.265C50.0151 161.728 50.5582 162 51.1336 162C51.15 162 51.1667 162 51.1831 162C51.7767 161.983 52.3248 161.679 52.6541 161.185C52.7762 161 65.0664 142.44 77.1909 119.739C93.5558 89.1001 101.854 65.8777 101.854 50.7191C101.852 22.7523 79.0917 0 51.1154 0ZM74.5351 51.9586C74.5351 64.9365 63.9772 75.494 50.9994 75.494C38.0219 75.494 27.464 64.9361 27.464 51.9586C27.464 38.9811 38.0219 28.4232 50.9994 28.4232C63.9772 28.4232 74.5351 38.9811 74.5351 51.9586Z" fill="#FF3EC9"/>
<circle cx="53.5" cy="51.5" r="29.5" fill="#FF3EC9"/>
<circle cx="50.5" cy="46.5" r="11.5" fill="#E5E5E5"/>
</svg>
